<?xml version="1.0" encoding="UTF-8" standalone="no"?>
<!DOCTYPE svg PUBLIC "-//W3C//DTD SVG 1.1//EN" "http://www.w3.org/Graphics/SVG/1.1/DTD/svg11.dtd">
<svg width="100%" height="100%" viewBox="0 0 357 346" version="1.1" xmlns="http://www.w3.org/2000/svg" xmlns:xlink="http://www.w3.org/1999/xlink" xml:space="preserve" xmlns:serif="http://www.serif.com/" style="fill-rule:evenodd;clip-rule:evenodd;stroke-linejoin:round;stroke-miterlimit:2;">
    <g transform="matrix(1,0,0,1,-478.419,-418.913)">
        <g transform="matrix(1,0,0,1,0,-941.191)">
            <g transform="matrix(-0.48278,0.468693,-0.201495,-0.195615,1431.11,1135.59)">
                <path d="M1226.19,540.873C1118.67,540.873 1023.41,594.633 964.309,675.24C917.706,738.798 892.714,821.836 892.714,906.615C892.714,991.394 917.706,1074.43 964.309,1137.99C1023.41,1218.6 1118.67,1272.36 1226.19,1272.36C1333.71,1272.36 1428.97,1218.6 1488.07,1137.99C1534.68,1074.43 1559.67,991.394 1559.67,906.615C1559.67,821.836 1534.68,738.798 1488.07,675.24C1428.97,594.633 1333.71,540.873 1226.19,540.873ZM1226.19,651.63C1324.23,651.63 1411.32,697.999 1465.2,771.496C1493.97,810.731 1513.44,854.28 1513.44,906.615C1513.44,958.95 1493.97,1002.5 1465.2,1041.73C1411.32,1115.23 1324.23,1161.6 1226.19,1161.6C1128.16,1161.6 1041.07,1115.23 987.176,1041.73C958.408,1002.5 938.94,958.95 938.94,906.615C938.94,854.28 958.408,810.731 987.176,771.496C1041.07,697.999 1128.16,651.63 1226.19,651.63Z" style="fill:rgb(62,91,169);"/>
            </g>
            <g transform="matrix(1.10291,0,0,1.10291,-67.557,-157.758)">
                <g id="blue-piece" transform="matrix(0.184491,4.64533e-34,-4.64533e-34,0.184491,609.179,1485.72)">
                    <path d="M455.398,412.197C489.19,369.176 509.344,314.935 509.344,255.986C509.344,116.207 396.031,2.893 256.251,2.893C225.845,2.893 196.693,8.26 169.685,18.09C272.435,71.989 408.349,247.839 455.398,412.197Z" style="fill:rgb(62,91,169);fill-rule:nonzero;"/>
                </g>
                <g id="left-red-piece" transform="matrix(0.184491,4.64533e-34,-4.64533e-34,0.184491,609.179,1485.72)">
                    <path d="M220.003,164.337C180.522,121.804 136.308,88.025 89.48,65.622C36.573,112.011 3.159,180.092 3.159,255.986C3.159,319.8 26.785,378.09 65.756,422.609C100.111,319.392 164.697,219.907 220.003,164.337Z" style="fill:rgb(159,29,32);fill-rule:nonzero;"/>
                </g>
                <g id="bottom-red-piece" transform="matrix(0.184491,4.64533e-34,-4.64533e-34,0.184491,609.179,1485.72)">
                    <path d="M266.638,221.727C211.846,280.778 157.246,384.149 137.486,479.521C172.905,498.378 213.326,509.08 256.252,509.08C300.384,509.08 341.87,497.774 377.992,477.917C357.171,381.712 317.868,293.604 266.638,221.727Z" style="fill:rgb(159,29,32);fill-rule:nonzero;"/>
                </g>
            </g>
            <path d="M683.866,1644.31C705.383,1657.22 726.09,1666.46 744.621,1671.4C766.416,1677.21 784.589,1677.82 795.134,1667.58C805.679,1657.34 805.056,1639.7 799.072,1618.54C787.865,1578.9 755.162,1529.01 707.833,1483.07C691.003,1466.73 673.66,1452.18 656.456,1439.73C665.669,1433.06 674.841,1427 683.866,1421.58C699.428,1433.37 714.999,1446.69 730.15,1461.4C782.059,1511.79 817.216,1566.96 829.508,1610.43C839.2,1644.7 834.534,1672.66 817.451,1689.24C800.369,1705.83 771.571,1710.36 736.266,1700.95C712.253,1694.55 684.775,1681.76 656.456,1663.51C665.533,1657.66 674.699,1651.25 683.866,1644.31ZM629.044,1644.31C613.483,1632.52 597.912,1619.2 582.76,1604.49C530.852,1554.1 495.695,1498.93 483.403,1455.46C473.711,1421.19 478.377,1393.23 495.46,1376.65C512.542,1360.06 541.339,1355.53 576.645,1364.94C600.658,1371.34 628.136,1384.13 656.455,1402.38C647.378,1408.23 638.211,1414.64 629.044,1421.58C607.528,1408.67 586.821,1399.43 568.29,1394.49C546.495,1388.68 528.322,1388.08 517.777,1398.31C507.232,1408.55 507.855,1426.19 513.838,1447.35C525.046,1486.99 557.748,1536.88 605.077,1582.82C621.908,1599.16 639.251,1613.71 656.455,1626.16C647.242,1632.83 638.07,1638.89 629.044,1644.31Z" style="fill:rgb(159,29,32);"/>
            <path d="M521.962,1532.94C527.988,1541.76 534.592,1550.66 541.744,1559.56C528.441,1580.44 518.925,1600.55 513.838,1618.54C507.855,1639.7 507.232,1657.34 517.777,1667.58C528.322,1677.82 546.495,1677.21 568.29,1671.4C587.249,1666.35 608.487,1656.79 630.541,1643.4L630.738,1643.29L630.837,1643.23L631.158,1643.03L631.488,1642.83L631.587,1642.77L631.767,1642.66C632.506,1642.2 633.246,1641.75 633.99,1641.29L634.136,1641.19L634.191,1641.16L634.505,1640.96L634.897,1640.72L634.987,1640.66L635.114,1640.58L635.623,1640.26C635.996,1640.03 636.369,1639.79 636.742,1639.55L637.514,1639.06L637.863,1638.84L638.331,1638.54L638.4,1638.49L638.475,1638.45C639.577,1637.74 640.682,1637.02 641.789,1636.29L641.822,1636.27L641.851,1636.25C663.766,1621.82 686.223,1603.8 707.833,1582.82C724.664,1566.49 739.644,1549.65 752.469,1532.94C759.337,1541.89 765.586,1550.79 771.167,1559.56C759.027,1574.66 745.302,1589.78 730.15,1604.49C714.89,1619.31 699.204,1632.72 683.527,1644.57L683.007,1644.96L682.631,1645.24L682.049,1645.68L681.503,1646.09L680.933,1646.51L680.436,1646.88L679.491,1647.58L679.009,1647.94L678.374,1648.41L677.918,1648.74L676.942,1649.45L676.522,1649.76L675.833,1650.26L675.399,1650.57L674.402,1651.29L674.048,1651.54L673.302,1652.08L672.879,1652.38L671.997,1653.01L671.843,1653.12L671.601,1653.29L670.779,1653.87L670.358,1654.16L669.58,1654.7L669.27,1654.92L669.224,1654.95L668.262,1655.62L667.833,1655.92L667.124,1656.41L666.731,1656.68L665.751,1657.35L665.303,1657.65L664.653,1658.09L664.196,1658.4L663.245,1659.05L662.761,1659.37L662.177,1659.76L661.654,1660.11L660.97,1660.56L660.717,1660.73L660.196,1661.08L659.699,1661.4L659.105,1661.79L658.668,1662.08L658.159,1662.41L657.575,1662.79L657.223,1663.02L656.544,1663.46C628.187,1681.74 600.681,1694.54 576.645,1700.95C541.339,1710.36 512.542,1705.83 495.46,1689.24C478.377,1672.66 473.711,1644.7 483.403,1610.43C489.995,1587.11 503.164,1560.44 521.962,1532.94ZM656.367,1402.43C684.724,1384.15 712.23,1371.35 736.266,1364.94C771.571,1355.53 800.369,1360.06 817.451,1376.65C834.534,1393.23 839.2,1421.19 829.508,1455.46C822.915,1478.78 809.747,1505.45 790.949,1532.94C784.923,1524.13 778.319,1515.23 771.167,1506.33C784.47,1485.44 793.985,1465.34 799.072,1447.35C805.056,1426.19 805.679,1408.55 795.134,1398.31C784.589,1388.08 766.416,1388.68 744.621,1394.49C725.661,1399.54 704.424,1409.1 682.369,1422.48L682.172,1422.6L682.073,1422.66L681.753,1422.86L681.423,1423.06L681.324,1423.12L681.144,1423.23C680.405,1423.68 679.665,1424.14 678.921,1424.61L678.775,1424.7L678.72,1424.73L678.406,1424.92L678.014,1425.17L677.923,1425.23L677.797,1425.31L677.288,1425.63C676.915,1425.86 676.542,1426.1 676.169,1426.34L675.397,1426.83L675.048,1427.05L674.58,1427.35L674.511,1427.39L674.436,1427.44C673.333,1428.15 672.229,1428.87 671.122,1429.6L671.089,1429.62L671.06,1429.64C649.145,1444.07 626.688,1462.09 605.077,1483.07C588.247,1499.4 573.267,1516.24 560.441,1532.94C553.574,1524 547.325,1515.1 541.744,1506.33C553.884,1491.23 567.608,1476.11 582.76,1461.4C598.021,1446.58 613.707,1433.17 629.384,1421.32L629.904,1420.93L630.28,1420.65L630.862,1420.21L631.408,1419.8L631.978,1419.38L632.475,1419.01L633.42,1418.31L633.902,1417.95L634.537,1417.48L634.993,1417.15L635.968,1416.44L636.389,1416.13L637.078,1415.63L637.512,1415.32L638.509,1414.6L638.862,1414.35L639.609,1413.81L640.031,1413.51L640.913,1412.88L641.068,1412.77L641.31,1412.6L642.132,1412.03L642.553,1411.73L643.331,1411.18L643.64,1410.97L643.687,1410.94L644.648,1410.27L645.078,1409.97L645.787,1409.48L646.179,1409.21L647.16,1408.54L647.608,1408.24L648.258,1407.8L648.715,1407.49L649.665,1406.85L650.15,1406.52L650.734,1406.13L651.256,1405.78L651.941,1405.33L652.194,1405.16L652.715,1404.82L653.211,1404.49L653.805,1404.1L654.243,1403.81L654.752,1403.48L655.336,1403.1L655.687,1402.87L656.367,1402.43Z" style="fill:rgb(62,91,169);"/>
        </g>
    </g>
</svg>
